<svg width="204" height="68" viewBox="0 0 204 68" fill="none" xmlns="http://www.w3.org/2000/svg">
<path fill-rule="evenodd" clip-rule="evenodd" d="M31.3582 38.6061C30.3875 39.1261 30.2644 39.2043 29.7168 39.2043C29.4773 39.2043 29.0442 38.9494 28.5784 38.6297C28.5784 38.6297 28.2704 38.4254 27.3802 37.8474C26.7914 37.4697 26.6004 37.231 26.0854 37.231C25.5612 37.231 25.2864 37.4279 23.0283 38.6297C21.5239 39.4275 21.9038 39.6791 22.6889 40.1923C24.9431 41.6564 23.6776 40.833 26.7874 42.8778C27.7681 43.5259 28.3489 44 28.8845 44C29.4187 44 30.3955 43.5218 33.5491 41.85C42.1625 37.2816 49.6341 33.3228 56.1557 29.8652L57 25L31.3582 38.6061Z" fill="#4A176D"/>
<path fill-rule="evenodd" clip-rule="evenodd" d="M27.7297 58.7647C26.2229 59.5521 26.1261 59.3946 25.04 58.6887C21.8732 56.6442 11.1826 49.7846 8.85262 48.2533C8.26114 47.863 7.53077 47.5406 7.16694 47.5549C6.68319 47.5691 6.51991 47.7239 5.28343 48.3775C2.57808 49.7962 2.7644 49.8043 3.39179 50.2C3.99546 50.572 20.1008 60.9754 23.9912 63.4807C24.4885 63.8059 24.8916 64 25.3774 64C25.8801 64 26.6261 63.8059 27.2751 63.4611C37.2591 58.223 45.7864 53.7574 53.1409 49.8986L54 45C46.5486 48.9049 37.8926 53.4452 27.7297 58.7647Z" fill="#4A176D"/>
<path fill-rule="evenodd" clip-rule="evenodd" d="M28.5627 48.6595C27.6931 49.1119 27.5105 49.1761 26.9529 49.1761C26.6327 49.1761 26.0409 48.7824 25.2938 48.307C22.6652 46.6507 18.314 44.0037 18.0068 43.7991C18.0068 43.7991 17.7283 43.6168 16.9751 43.1333C16.373 42.7484 15.9427 42.4142 15.4111 42.4142C14.8658 42.4142 14.8583 42.4338 13.7233 43.0205C10.8751 44.4824 10.7007 44.5959 11.2459 44.9416C14.6633 47.1186 18.0431 49.2726 24.4037 53.2782C25.5503 54 25.5804 54 26.0676 54C26.5903 54 26.8188 53.9939 27.6664 53.5537C37.9028 48.2618 46.6218 43.7478 54.1304 39.8692L55 35C47.5002 38.8732 38.7847 43.3777 28.5627 48.6595Z" fill="#4A176D"/>
<path fill-rule="evenodd" clip-rule="evenodd" d="M31.2642 29.8098C31.5003 29.8098 31.9345 30.0667 32.4053 30.3877C32.4053 30.3877 32.7121 30.5919 33.6072 31.1664C34.1967 31.5483 34.3922 31.7862 34.9004 31.7862C35.4279 31.7862 35.7054 31.5902 37.9683 30.3877C39.4763 29.5841 39.0975 29.334 38.3098 28.823C36.0495 27.3542 37.3154 28.1842 34.2028 26.1268C33.2143 25.4833 32.6381 25 32.0985 25C31.563 25 30.5839 25.4833 27.4226 27.1555C18.8243 31.7125 11.3644 35.6714 4.85036 39.1266L4 44L29.6168 30.4073C30.5939 29.8889 30.7193 29.8098 31.2642 29.8098Z" fill="#00B0AD"/>
<path fill-rule="evenodd" clip-rule="evenodd" d="M35.9214 11.3193C39.0888 13.3732 49.8041 20.2517 52.1389 21.7809C52.7314 22.1757 53.461 22.4969 53.8247 22.4887C54.31 22.4765 54.4722 22.3145 55.7156 21.6632C58.4216 20.236 58.237 20.232 57.6064 19.8372C57.0038 19.4622 40.8684 9.02987 36.9733 6.51451C36.4759 6.19532 36.0727 6 35.5813 6C35.0764 6 34.3346 6.19532 33.6823 6.53424C23.7184 11.7657 15.2061 16.2323 7.86263 20.0863L7 25C14.444 21.099 23.0858 16.563 33.229 11.2472C34.7323 10.4543 34.83 10.6156 35.9214 11.3193Z" fill="#00B0AD"/>
<path fill-rule="evenodd" clip-rule="evenodd" d="M33.0152 19.831C33.3325 19.831 33.9268 20.2277 34.676 20.6987C37.3107 22.363 41.67 25.014 41.975 25.2205C41.975 25.2205 42.254 25.4066 43.0175 25.8905C43.6138 26.2749 44.0415 26.614 44.5734 26.614C45.1197 26.614 45.132 26.5883 46.2726 26.0015C49.1178 24.5342 49.3001 24.4232 48.7565 24.078C45.3246 21.8933 41.9394 19.7397 35.5636 15.7188C34.421 15 34.3888 15 33.9007 15C33.3764 15 33.1475 15.0068 32.2982 15.4467C22.0841 20.7271 13.3758 25.236 5.87323 29.1202L5 34C12.4958 30.1212 21.2013 25.6252 31.399 20.3508C32.2722 19.8967 32.4511 19.831 33.0152 19.831Z" fill="#00B0AD"/>
<path fill-rule="evenodd" clip-rule="evenodd" d="M73.7534 47.4814H66.7178L68.2798 38H63.431L60 58.9947L64.8528 59L66.0213 51.8896H73.0608L71.8857 58.9907H76.5809L80 38H75.3134L73.7534 47.4814Z" fill="#4A176D"/>
<path fill-rule="evenodd" clip-rule="evenodd" d="M81.4151 43.765L85.5213 46.2681L80.5306 48.9649L79 58H83.9361L87 40H82.0571L81.4151 43.765Z" fill="#4A176D"/>
<path fill-rule="evenodd" clip-rule="evenodd" d="M98.5852 45.1964C97.7385 44.2352 96.177 43.4542 94.2835 43.4542C92.7188 43.4542 91.893 43.9351 91.8506 43.9351L91.4423 46.5373C91.4502 46.5373 92.2668 46.3237 92.9321 46.3973C95.9396 46.7336 95.575 50.0632 95.4087 51.1088C95.0865 53.1309 93.9724 55.2381 91.895 55.9937C90.5416 56.494 89.7523 56.2529 89.7523 56.2529L92.3098 40.0047L87.9182 40L85 58.5523C85.0098 58.5363 88.3082 59.0118 90.7275 58.9998C93.1199 58.9897 95.3102 58.3112 97.023 56.7921C98.55 55.4317 99.4748 53.4015 99.8688 50.8516C99.964 50.2119 100.012 49.6037 99.9973 49.035C99.9471 47.4041 99.4905 46.2232 98.5852 45.1964Z" fill="#4A176D"/>
<path fill-rule="evenodd" clip-rule="evenodd" d="M103.978 45.2287C103.157 45.9733 102.873 47.8617 102.628 49.3643L101 59H105.616L107.325 49.1895C107.524 47.9675 108.167 47.3802 109.149 47.3802H110.753L112 44C107.066 44 105.064 44.2417 103.978 45.2287Z" fill="#4A176D"/>
<path fill-rule="evenodd" clip-rule="evenodd" d="M132.56 46.9204L133 43.8664H130.818L131.364 40L127.27 41.3922L126.912 43.8664H125.435L125 46.9204H126.472L125.644 52.632C125.518 53.4385 125.405 54.2617 125.306 55.0835C125.077 56.8313 125.81 57.8039 126.132 58.1401C126.695 58.7498 127.397 59 128.553 59L128.675 58.9953C129.899 58.9793 130.664 58.6218 130.884 58.4703L131.302 55.6212C131.085 55.6899 130.701 55.7733 130.238 55.7733C129.622 55.7733 129.281 55.4011 129.264 54.6946C129.264 54.5525 129.287 54.3731 129.315 54.1656L130.384 46.9204H132.56Z" fill="#4A176D"/>
<path fill-rule="evenodd" clip-rule="evenodd" d="M152.179 49.3692L152.187 49.3283C152.334 49.3283 153.31 48.9416 154.355 47.9766C155.404 47.0024 155.789 46.3805 155.974 44.9521C156.154 43.4509 155.395 41.7184 154.09 40.9347C152.447 39.9644 151.313 40.0002 149.208 40.0002L141.058 40.0047L138 58L142.78 57.9961L145.374 42.7426H148.371C150.174 42.7426 151.207 43.6231 151.135 45.1009C151.069 46.3233 150.437 46.8932 149.82 47.2845C149.155 47.7192 148.461 47.9512 146.704 47.9532L144.646 47.9551L144.204 50.55H146.022C149.296 50.6371 149.92 52.098 149.626 53.193C149.305 54.39 148.212 55.179 145.162 55.2797H143.401L142.939 57.9961H146.913C148.352 57.9961 150.665 57.9662 151.953 57.3677C154.372 56.2408 154.922 54.5811 155.081 53.3301C155.176 52.5912 155.101 51.0088 154.069 50.1939C153.073 49.4075 152.179 49.3692 152.179 49.3692Z" fill="#4A176D"/>
<path fill-rule="evenodd" clip-rule="evenodd" d="M178.358 45C175.972 45 173.861 45.3815 172.069 46.1241L170 59L174.306 58.9962L176.101 47.9888L176.245 47.9516C176.737 47.8221 177.281 47.7509 177.823 47.7509C178.978 47.7509 179.58 48.2196 179.612 49.1539C179.612 49.3059 179.599 49.4617 179.563 49.6297L178.035 58.9853L182.39 58.9827L183.931 49.6072C183.985 49.2559 184.006 48.9134 183.999 48.589C183.935 46.1722 182.086 45 178.358 45Z" fill="#4A176D"/>
<path fill-rule="evenodd" clip-rule="evenodd" d="M188.873 40.0045L186 58H190.318L191.454 51.089L194.42 58L199.484 57.9993L195.675 50.2395L201 43.7899H196.4L191.627 49.9249L193.197 40L188.873 40.0045Z" fill="#4A176D"/>
<path fill-rule="evenodd" clip-rule="evenodd" d="M117.292 55.9471C115.522 55.7701 114.009 54.2593 114.216 52.1054C114.532 48.7446 115.885 47.7422 116.354 47.2787C116.89 46.7502 117.553 46.4833 118.335 46.4833C119.514 46.4833 120.084 47.2195 120.027 48.6659C120.016 49.0369 119.957 49.4392 119.875 49.8701L119.828 50.0641H115.163C115.163 50.0641 114.937 50.6668 114.789 51.3503C114.649 51.9928 114.643 52.3221 114.643 52.3221L123.539 52.356C123.804 51.336 123.962 50.3654 123.992 49.4639C124.06 47.7682 123.697 46.439 122.925 45.503C122.1 44.5038 120.839 44 119.188 44C117.006 44 115.084 44.6522 113.48 45.9476C111.868 47.2416 110.793 48.9926 110.27 51.1557C110.115 51.7962 110.028 52.4159 110.004 52.9835C109.943 54.6303 110.566 56.2811 111.644 57.2887C112.739 58.3107 114.094 59 116.078 59C118.066 59 120.535 58.4376 122.915 56.6833L121.198 54.7885C119.353 55.9432 118.224 56.0441 117.292 55.9471Z" fill="#4A176D"/>
<path fill-rule="evenodd" clip-rule="evenodd" d="M163.989 44C162.777 43.9981 161.325 44.1924 159.749 44.569L159.3 47.2661C160.878 46.7226 162.003 46.6206 162.734 46.6206C164.292 46.6219 164.929 47.0138 164.94 47.8828C164.94 48.0217 164.701 49.456 164.679 49.5904C164.402 51.2661 163.679 55.6548 163.679 55.6548C163.647 55.8415 163.41 55.846 162.138 55.8441C161.266 55.8415 160.611 55.6045 160.25 55.1566C159.971 54.8113 159.874 54.3442 159.957 53.8071C160.103 52.8979 160.579 52.2155 161.373 51.7682C162.13 51.3394 163.131 51.2782 164.244 51.261L164.653 48.8628C164.476 48.8526 163.979 48.8405 163.813 48.8405C161.944 48.8405 160.186 49.2769 158.828 50.0906C158.341 50.3837 157.904 50.7233 157.534 51.1094C156.502 52.1868 155.96 53.5701 156.002 55.0145C156.041 56.2391 156.733 56.9642 157.609 57.3911C158.67 57.9066 159.996 57.9983 160.775 57.9983C161.153 57.9983 161.452 58.0021 161.467 57.9983H167.248L168.055 53.3165C168.055 53.3165 168.85 48.2626 168.941 47.7019C169.364 45.0558 167.502 44.0077 163.989 44Z" fill="#4A176D"/>
<path fill-rule="evenodd" clip-rule="evenodd" d="M99.5347 12C97.4278 12 95.6744 12.6417 94.3354 13.9111C92.9998 15.1726 92.1748 17.004 91.8061 19.3529L91.2988 22.5777H86.8927L85 27.912H85.3767C86.2262 27.912 86.9935 27.7063 87.65 27.2862C88.2442 26.9057 88.6992 26.3973 89.0102 25.7754H90.7484L89.7271 32H94.1915L96.2639 19.2989C96.4563 18.0855 96.8343 17.2071 97.2514 16.6617C97.6367 16.1671 98.1135 15.9198 98.8072 15.9126C99.5148 15.9027 99.9213 16.1519 100.153 16.6498C100.41 17.1853 100.444 18.0683 100.25 19.2751L98.1195 32H102.766L104.837 19.409C105.208 17.0501 104.946 15.2089 104.053 13.9375C103.154 12.6509 101.633 12 99.5347 12Z" fill="#00B0AD"/>
<path fill-rule="evenodd" clip-rule="evenodd" d="M157.639 12C155.576 12 153.862 12.6417 152.54 13.9111C151.236 15.1726 150.389 17.004 150.021 19.3529L149 25.7213H153.536L154.544 19.3008C154.736 18.0624 155.045 17.1662 155.453 16.6366C155.832 16.15 156.317 15.9126 156.933 15.9126C157.59 15.9126 158.016 16.1559 158.248 16.6498C158.5 17.1853 158.511 18.0696 158.325 19.2778L156.298 32H160.827L162.838 19.409C163.205 17.0501 162.947 15.2089 162.076 13.9375C161.195 12.6509 159.704 12 157.639 12Z" fill="#00B0AD"/>
<path fill-rule="evenodd" clip-rule="evenodd" d="M187.839 14.595C186.294 14.5369 184.919 14.9067 183.759 15.5314C183.585 15.1503 183.486 14.4094 183.722 12.9566L184.064 11H179.245L178.921 12.8384C178.458 15.6298 179.046 17.4755 180.66 18.571C180.193 19.4935 179.703 21.1352 179.546 22.6104C179.513 22.9082 179.4 23.8017 179.4 23.8017L180.989 23.7984C179.74 24.7189 178.966 26.0964 178.659 27.9091L178 31.9974L182.704 32L183.373 28.1065C183.519 27.2342 183.853 26.5937 184.185 26.2377C184.49 25.9069 184.934 25.7444 185.55 25.7444H185.596L186.152 22.5074H185.548C185.241 22.5074 184.359 22.5153 184.359 22.5153C184.359 22.5153 184.508 20.5263 185.265 19.5899C185.675 19.0913 186.397 18.5149 188.079 18.5882C190.453 18.6925 190.441 21.3082 190.234 22.5245L188.627 31.9848H193.34L194.785 22.6626C194.785 22.6626 196.904 14.9278 187.839 14.595Z" fill="#00B0AD"/>
<path fill-rule="evenodd" clip-rule="evenodd" d="M119.704 27.7306C119.704 27.7306 114.349 28.1154 113.549 28.1095C112.897 28.1055 112.17 28.0073 111.843 27.7991C111.456 27.552 111.289 27.117 111.338 26.4817C111.455 24.9126 112.921 23.1458 115.247 21.2222C116.737 20.0063 117.883 18.6296 118.648 17.1376C119.447 15.585 119.833 14.18 119.977 12.2834L120 12H115.465L115.442 12.3361C115.332 13.8439 115.059 15.0677 114.64 15.9771C114.222 16.8747 113.611 17.682 112.81 18.3502C110.781 20.0933 109.317 21.6222 108.47 22.8849C107.612 24.1673 107.128 25.509 107.022 26.8758C106.89 28.6729 107.356 29.9929 108.403 30.8048C109.242 31.4533 110.486 31.7808 112.092 31.7808C112.452 31.7808 112.836 31.7683 113.236 31.7354L115.794 31.5291C115.978 31.9654 116.325 32.3265 116.819 32.6006C117.293 32.8662 117.821 33 118.387 33C118.485 33 118.589 32.996 118.691 32.9862L119.718 32.9051L119.184 29.4572L119.704 27.7306Z" fill="#00B0AD"/>
<path fill-rule="evenodd" clip-rule="evenodd" d="M175.264 20.5505C175.264 20.5505 177.8 15.8796 175.012 13.429C174.453 12.9314 171.752 11.3246 168.04 12.3179C166.414 12.7544 165.638 13.2937 165.638 13.2937L165 17.0025C166.58 15.7502 170.926 15.0164 171.693 16.9394C172.508 18.9788 168.875 22.6283 168.868 22.6244H172.513L168.596 32H173.315L178 20.5505H175.264Z" fill="#00B0AD"/>
<path fill-rule="evenodd" clip-rule="evenodd" d="M131.517 18.5356L132.317 13.8559L130.931 13.8499C130.01 13.8499 129.372 13.668 129.044 13.3128C128.714 12.9641 128.61 12.3555 128.747 11.5127L128.836 11H124.212L124.099 11.6695C123.679 14.2296 124.578 15.9642 127.083 16.7084L126.763 18.5422H121.109L119 24.6589H120.065C120.937 24.6589 121.729 24.4392 122.424 24.0112C123.049 23.6355 123.549 23.1274 123.877 22.5075H126.074L124.45 32H129.214L130.837 22.5075H132.856C132.974 23.1274 133.291 23.6355 133.786 24.0112C134.338 24.4392 135.066 24.6589 135.939 24.6589H137L136.901 18.5422L131.517 18.5356Z" fill="#00B0AD"/>
<path fill-rule="evenodd" clip-rule="evenodd" d="M83.8844 26.1403C84.1079 24.7255 84.0073 23.4509 83.5821 22.3364C83.1602 21.2126 82.4287 20.317 81.4001 19.6761C80.455 19.0828 79.2845 18.7302 77.9214 18.6257L78.7009 13.6669H76.5754C75.4778 13.6669 75.2176 13.5016 75.1565 13.4281C75.004 13.2443 74.9698 12.8507 75.0618 12.2541L75.257 11.0079L70.6183 11L70.4251 12.2151C70.1234 13.9765 69.8401 15.6354 70.5453 16.4919C70.8569 16.8656 71.3288 17.0568 71.9544 17.0568C71.9544 17.0568 73.4772 17.0462 73.5101 17.0462L73.2695 18.6079C71.1125 18.7904 69.2854 19.5306 67.8284 20.8171C66.2911 22.1776 65.2829 23.9913 64.9438 26.1793L64 32H68.8103L69.7652 26.0874C69.9229 25.0747 70.2292 24.1851 70.8299 23.5627C71.334 23.0302 71.8618 22.7319 72.6472 22.5924L71.1704 32H75.7572L77.2721 22.5824C78.0003 22.7101 78.576 23.0322 78.9414 23.5627C79.3614 24.1772 79.4922 25.0245 79.3253 26.0874L78.3986 32H82.9426L83.8844 26.1403Z" fill="#00B0AD"/>
</svg>
